# xmcd CD database file
#
# Track frame offsets:
#	150
#	13765
#	25318
#	40165
#	61505
#	80215
#	99508
#	112685
#	127395
#	145248
#
# Disc length: 2259 seconds
#
# Revision: 0
# Processed by: cddbd v1.5.1PL0 Copyright (c) Steve Scherf et al.
# Submitted via: CDex 1.51
#
DISCID=8108d10a
DTITLE=いろいろ - テレビまんが大行進-女の子-Disk2
DYEAR=1900
DGENRE=Anime
TTITLE0=ドラえもん
TTITLE1=ぼくドラえもん２１１２
TTITLE2=STILL TIME
TTITLE3=Alone
TTITLE4=Go-Round
TTITLE5=天界のオーロラ〜AURORA HEALING〜
TTITLE6=ムーンライト伝説
TTITLE7=乙女のポリシー
TTITLE8=LOVE　トロピカ〜ナ
TTITLE9=おはし
EXTD=
EXTT0=
EXTT1=
EXTT2=
EXTT3=
EXTT4=
EXTT5=
EXTT6=
EXTT7=
EXTT8=
EXTT9=
PLAYORDER=
